<?xml version="1.0" standalone="no"?>
<!DOCTYPE svg PUBLIC "-//W3C//DTD SVG 20010904//EN"
 "http://www.w3.org/TR/2001/REC-SVG-20010904/DTD/svg10.dtd">
<svg version="1.0" xmlns="http://www.w3.org/2000/svg"
 width="256.000000pt" height="256.000000pt" viewBox="0 0 256.000000 256.000000"
 preserveAspectRatio="xMidYMid meet">
<metadata>
Created by potrace 1.14, written by Peter Selinger 2001-2017
</metadata>
<g transform="translate(0.000000,256.000000) scale(0.100000,-0.100000)"
fill="#000000" stroke="none">
<path d="M477 2154 c-1 -1 -47 -5 -102 -8 -55 -4 -116 -8 -135 -11 -19 -2 -75
-7 -125 -10 -139 -10 -140 -14 -60 -190 29 -64 206 -447 252 -545 20 -41 46
-97 58 -125 13 -27 37 -81 55 -120 18 -38 54 -116 80 -173 50 -108 79 -151
105 -153 8 -1 21 -2 28 -3 10 -2 31 2 107 19 8 2 69 18 135 35 332 88 334 88
343 76 6 -6 32 -51 60 -101 27 -49 62 -112 77 -140 72 -129 146 -252 165 -273
26 -28 80 -29 152 -3 29 11 100 36 158 56 58 20 114 40 125 45 11 4 99 36 195
70 337 119 372 134 362 159 -3 9 -77 111 -164 228 -86 117 -154 214 -150 217
7 4 350 96 358 96 28 0 -91 164 -282 388 -34 39 -52 52 -72 52 -44 0 -393 -60
-414 -71 -10 -6 -16 -15 -12 -22 10 -18 119 -173 195 -280 37 -50 64 -95 60
-98 -5 -5 -243 -64 -376 -94 -11 -2 -40 -9 -65 -16 -25 -6 -52 -12 -60 -14 -8
-2 -70 -17 -137 -33 -67 -16 -126 -26 -131 -23 -5 3 -20 26 -34 51 -14 25 -65
110 -113 190 -49 80 -93 154 -99 165 -57 103 -373 625 -389 643 -19 20 -29 23
-85 20 -35 -2 -64 -4 -65 -4z m129 -149 c26 -44 68 -116 94 -160 26 -44 91
-156 145 -250 54 -93 145 -250 202 -347 56 -97 103 -181 103 -186 0 -9 -22
-17 -70 -27 -45 -9 -332 -79 -373 -91 l-48 -13 -88 182 c-49 100 -142 290
-206 422 -201 412 -246 507 -242 511 2 2 31 6 65 9 34 2 83 7 110 9 26 3 78 8
117 11 38 3 70 7 71 8 1 1 18 2 38 2 34 0 38 -4 82 -80z m1631 -372 c15 -21
36 -47 45 -58 48 -57 158 -201 158 -207 0 -4 -26 -12 -57 -18 -32 -6 -81 -18
-109 -26 -158 -45 -142 -49 -221 58 -131 176 -163 220 -163 227 0 4 35 13 78
20 42 8 104 19 137 26 94 20 101 19 132 -22z m5 -636 c126 -171 136 -188 118
-197 -11 -6 -97 -37 -192 -69 -95 -32 -261 -88 -369 -125 -108 -36 -201 -66
-207 -66 -10 0 -144 217 -241 391 l-31 56 122 32 c68 17 175 45 238 62 63 16
124 32 135 35 11 2 76 19 145 38 69 19 129 33 135 32 5 -2 72 -87 147 -189z"/>
</g>
</svg>
